<svg xmlns="http://www.w3.org/2000/svg" width="117" height="75" viewBox="0 0 117 75">
	<g fill="none" fill-rule="evenodd">
		<path fill="currentColor" fill-rule="nonzero" d="M3.652 72.917H113.35a1.576 1.576 0 0 0 1.567-1.565V69.11c0-.43-.182-.82-.46-1.103l-.04-.04a1.569 1.569 0 0 0-1.067-.419H3.651c-.434 0-.823.176-1.112.459-.279.283-.453.671-.453 1.103v2.24c0 .432.175.821.453 1.108l.005-.004c.284.281.673.462 1.107.462ZM11.829 0h93.343a3.655 3.655 0 0 1 3.65 3.652v61.813h4.53a3.66 3.66 0 0 1 2.578 1.072c.66.66 1.07 1.575 1.07 2.574v2.241c0 1.005-.41 1.918-1.07 2.578a3.64 3.64 0 0 1-2.58 1.07H3.651a3.644 3.644 0 0 1-2.582-1.07l.004-.005H1.07A3.625 3.625 0 0 1 0 71.352v-2.241c0-1 .41-1.914 1.07-2.574h.003a3.64 3.64 0 0 1 2.58-1.072h4.526V3.652c0-1.005.41-1.918 1.071-2.573l.004-.004-.004-.004A3.637 3.637 0 0 1 11.828 0Zm93.343 2.086H11.829c-.43 0-.821.177-1.104.46h-.003a1.56 1.56 0 0 0-.454 1.106v61.813h96.472V3.652a1.575 1.575 0 0 0-1.567-1.566h-.001ZM40.939 71.098a1.043 1.043 0 0 1 0-2.085h34.423a1.042 1.042 0 0 1 0 2.085H40.939ZM14.497 5.017a1.04 1.04 0 0 0-1.045 1.041v55.434c0 .579.467 1.045 1.045 1.045h88.012c.572 0 1.042-.467 1.042-1.045V6.058a1.04 1.04 0 0 0-1.042-1.041H14.497Z"/>
		<path fill="#2B2B2B" d="M101.462 7.098H15.539v53.353h85.924V7.098z"/>
		<path fill="currentColor" fill-rule="nonzero" d="m63.235 32.25-8.29-4.108a1.334 1.334 0 0 0-1.31.063c-.4.24-.635.669-.635 1.135v8.221c0 .467.235.887.635 1.136.22.132.463.202.706.202a1.4 1.4 0 0 0 .604-.14l8.29-4.107c.455-.225.745-.684.745-1.197 0-.514-.282-.965-.745-1.19v-.016Zm-8.666 4.946V29.69l7.568 3.75-7.568 3.748v.008Z"/>
	</g>
</svg>