<svg xmlns="http://www.w3.org/2000/svg" width="51" height="49" viewBox="0 0 51 49"><g fill="none" fill-rule="evenodd" stroke="currentColor" stroke-width="2"><path d="M12.667 11.844h-10.5V1h13.999v7.23M25.5 41.974V48H1V28.717h7M39.501 13.05V3.408H50v43.386H39.501V34.743"/><path d="M43 23.896C43 13.913 35.165 5.82 25.5 5.82S8 13.913 8 23.896c0 9.984 7.835 18.078 17.5 18.078S43 33.88 43 23.896Z"/><path d="M32.5 23.896c0-9.983-3.133-18.077-7-18.077-3.865 0-7 8.094-7 18.077 0 9.984 3.135 18.078 7 18.078 3.867 0 7-8.094 7-18.078ZM8 23.896h35"/></g></svg>