<svg xmlns="http://www.w3.org/2000/svg" width="52" height="40" viewBox="0 0 52 40"><g fill="none" fill-rule="evenodd" stroke="currentColor" stroke-width="2"><path d="M15.286 23.562c-3.945 0-7.142-3.19-7.142-7.125C4.2 16.437 1 13.249 1 9.31h19.027c3.298 0 5.972 2.669 5.972 5.96V29.5h-4.76c-3.287 0-5.953-2.66-5.953-5.938ZM8.143 16.437H21.24M15.286 23.562h5.952"/><path d="M3.382 9.311V1H51v38H3.382V14.062"/><path d="m37.308 15.551 7.62 4.407a.238.238 0 0 1-.002.413l-7.636 4.378M25.999 20.15h13.097"/></g></svg>