<svg xmlns="http://www.w3.org/2000/svg" width="40" height="70" viewBox="0 0 40 70"><g fill="currentColor" fill-rule="nonzero"><path d="M36.07 70H3.93a3.932 3.932 0 0 1-2.777-1.153A3.943 3.943 0 0 1 0 66.067V3.933a3.943 3.943 0 0 1 1.153-2.78A3.931 3.931 0 0 1 3.931 0H36.07a3.932 3.932 0 0 1 2.777 1.153A3.943 3.943 0 0 1 40 3.933v62.133a3.943 3.943 0 0 1-1.153 2.78A3.931 3.931 0 0 1 36.07 70ZM3.93 2.692a1.24 1.24 0 0 0-1.24 1.242v62.132a1.242 1.242 0 0 0 1.24 1.242h32.14a1.24 1.24 0 0 0 1.24-1.242V3.934a1.242 1.242 0 0 0-1.24-1.242H3.93Z"/><path d="M38.655 11.526H1.345A1.345 1.345 0 0 1 .18 9.507c.24-.416.684-.673 1.165-.673h37.31a1.345 1.345 0 0 1 1.165 2.02c-.24.416-.685.672-1.165.672ZM38.655 61.166H1.345a1.345 1.345 0 0 1-1.165-2.02c.24-.416.684-.672 1.165-.672h37.31a1.345 1.345 0 0 1 1.165 2.019c-.24.416-.685.673-1.165.673ZM23.148 7.11h-6.296a1.344 1.344 0 0 1-1.164-2.02c.24-.416.683-.673 1.164-.673h6.296a1.344 1.344 0 0 1 1.164 2.02c-.24.416-.684.672-1.164.672ZM26.295 65.583h-12.59a1.345 1.345 0 0 1-1.165-2.02c.24-.416.684-.672 1.164-.672h12.591a1.345 1.345 0 0 1 1.165 2.019c-.24.416-.684.673-1.165.673ZM25.137 33.805l-8.29-4.107a1.334 1.334 0 0 0-1.31.062c-.4.241-.635.67-.635 1.136v8.22c0 .468.235.888.635 1.136.22.133.463.203.706.203a1.4 1.4 0 0 0 .604-.14l8.29-4.107c.455-.226.745-.684.745-1.198 0-.513-.282-.964-.745-1.19v-.015Zm-8.666 4.946v-7.505l7.568 3.749-7.568 3.749v.007Z"/></g></svg>