<svg xmlns="http://www.w3.org/2000/svg" width="46" height="74" viewBox="0 0 46 74">
	<g fill="currentColor" fill-rule="nonzero">
		<path d="M45.069 0H.93A.928.928 0 0 0 0 .925v72.15c0 .511.417.925.931.925H45.07a.928.928 0 0 0 .931-.925V.925A.928.928 0 0 0 45.069 0Zm-6.547 52.398h5.615v5.387h-5.615v-5.387ZM7.477 57.785H1.862v-5.387h5.615v5.387Zm0-36.182H1.862v-5.387h5.615v5.387Zm0 14.473H1.862v-5.387h5.615v5.387Zm0 1.85v5.386H1.862v-5.386h5.615Zm0-9.087H1.862v-5.386h5.615v5.386ZM1.862 50.55v-5.387h5.615v5.387H1.862ZM9.34 23.453h27.32v27.096H9.34V23.453Zm29.182-7.237h5.615v5.387h-5.615v-5.387Zm5.615 7.237v5.386h-5.615v-5.386h5.615Zm-5.615 14.473h5.615v5.386h-5.615v-5.386Zm0-1.85v-5.387h5.615v5.387h-5.615Zm0 9.086h5.615v5.387h-5.615v-5.387Zm5.615-30.796h-5.615V8.979h5.615v5.387Zm-7.477 7.236H9.34V1.851h27.32v19.751ZM7.477 14.366H1.862V8.979h5.615v5.387ZM1.862 59.635h5.615v5.386H1.862v-5.386Zm7.478-7.237h27.32V72.15H9.34V52.398Zm29.182 7.237h5.615v5.386h-5.615v-5.386Zm5.615-52.506h-5.615V1.85h5.615v5.28ZM7.477 1.85v5.28H1.862V1.85h5.615ZM1.862 66.872h5.615v5.279H1.862v-5.28Zm36.66 5.279v-5.28h5.615v5.28h-5.615Z"/>
		<path d="m28.235 36.25-8.29-4.108a1.334 1.334 0 0 0-1.31.063c-.4.24-.635.669-.635 1.135v8.221c0 .467.235.887.635 1.136.22.132.463.202.706.202a1.4 1.4 0 0 0 .604-.14l8.29-4.107c.455-.225.745-.684.745-1.197 0-.514-.282-.965-.745-1.19v-.016Zm-8.666 4.946V33.69l7.568 3.75-7.568 3.748v.008Z"/>
	</g>
</svg>