<svg xmlns="http://www.w3.org/2000/svg" width="50" height="52" viewBox="0 0 52 52">
	<g fill="none" fill-rule="evenodd" stroke="currentColor" stroke-width="2">
		<path d="M22.474 23.474a3.573 3.573 0 1 0 5.052 0 3.566 3.566 0 0 0-5.052 0ZM15.476 26H0M50 26H34.524"/>
		<path stroke-linecap="round" stroke-linejoin="round" d="M18.143 34.231a10.711 10.711 0 0 0 13.712 0M31.856 17.77a10.708 10.708 0 0 0-13.712 0M13.573 12.282c6.604-5.518 16.25-5.518 22.853 0M13.573 39.718c6.604 5.518 16.25 5.518 22.853 0"/>
		<path stroke-linecap="round" stroke-linejoin="round" d="M9.002 6.795c9.247-7.727 22.748-7.727 31.995 0M40.997 45.205c-9.247 7.727-22.748 7.727-31.995 0"/>
	</g>
</svg>